<svg id="Layer_1" data-name="Layer 1" xmlns="http://www.w3.org/2000/svg" viewBox="0 0 1487.66 319.13"><defs><style>.cls-1{font-size:229.62px;fill:#fff;font-family:Aller-Bold, Aller;font-weight:700;}.cls-2{font-size:98px;}.cls-3{fill:#ed1c24;}</style></defs><title>logo-text</title><text class="cls-1" transform="translate(707 198.73)">irdaus<tspan class="cls-2"><tspan x="0" y="96">Personal Website</tspan></tspan></text><path class="cls-3" d="M541.69,625.08h-99l-17.49,45.39h-89.3L449.79,410h86.32L650,670.47H559.18ZM517.5,561.82l-25.3-65.48-25.3,65.48Z" transform="translate(-335.93 -380.83)"/><polygon class="cls-3" points="408.39 29.19 354.81 119.23 301.6 29.19 213.82 29.19 227.22 59.85 307.18 194.02 307.18 242.76 327.68 289.64 394.99 289.64 394.99 195.13 493.22 29.19 408.39 29.19"/><polygon class="cls-3" points="672.11 95.42 672.11 29.19 506.47 29.19 460.4 107.01 460.4 289.64 548.21 289.64 548.21 206.3 656.86 206.3 656.86 140.07 548.21 140.07 548.21 95.42 672.11 95.42"/></svg>