<svg id="Layer_1" data-name="Layer 1" xmlns="http://www.w3.org/2000/svg" viewBox="0 0 882.9 342.75"><defs><style>.cls-1{fill:#6366f1;}</style></defs><title>logo</title><polygon class="cls-1" points="535.84 0 465.33 118.49 395.31 0 279.8 0 297.44 40.34 402.66 216.91 402.66 281.05 429.63 342.75 518.22 342.75 518.22 218.38 647.48 0 535.84 0"/><path class="cls-1" d="M347.43,610.68H217.18l-23,59.74H76.65L226.49,327.66H340.08L489.91,670.42H370.44ZM315.6,527.44l-33.29-86.18L249,527.44Z" transform="translate(-76.65 -327.66)"/><polygon class="cls-1" points="882.9 87.16 882.9 0 664.91 0 604.29 102.41 604.29 342.75 719.85 342.75 719.85 233.07 862.83 233.07 862.83 145.91 719.85 145.91 719.85 87.16 882.9 87.16"/></svg>